<?xml version="1.0" encoding="UTF-8" standalone="no"?>
<svg 
  version="1.1" 
  xmlns="http://www.w3.org/2000/svg" 
  xmlns:xlink="http://www.w3.org/1999/xlink" 
  xmlns:svg="http://www.w3.org/2000/svg"
  xmlns:rdf="http://www.w3.org/1999/02/22-rdf-syntax-ns#"
  xmlns:cc="http://creativecommons.org/ns#"
  xmlns:dc="http://purl.org/dc/elements/1.1/"
  viewBox="0 0 768 768"
  width="768"
  height="768"
>
<style>svg {background-color: white; }</style>"
<metadata id="metadata1">
Created by https://svgstud.io and licensed under CC-BY-SA 4.0 license. Please attribute https://svgstud.io
</metadata>
<metadata id="prompt">
school work
</metadata>
<metadata id="version">
7
</metadata>
<metadata id="metadata2">
<rdf:RDF>
<cc:Work
    rdf:about="">
    <cc:license
    rdf:resource="http://creativecommons.org/licenses/by-sa/4.0/" />
    <dc:creator>
        <cc:Agent>
            <dc:title>https://svgstud.io</dc:title>
        </cc:Agent>
    </dc:creator>
</cc:Work>
<cc:License
    rdf:about="http://creativecommons.org/licenses/by-sa/4.0/">
    <cc:permits
    rdf:resource="http://creativecommons.org/ns#Reproduction" />
    <cc:permits
    rdf:resource="http://creativecommons.org/ns#Distribution" />
    <cc:requires
    rdf:resource="http://creativecommons.org/ns#Notice" />
    <cc:requires
    rdf:resource="http://creativecommons.org/ns#Attribution" />
    <cc:permits
    rdf:resource="http://creativecommons.org/ns#DerivativeWorks" />
    <cc:requires
    rdf:resource="http://creativecommons.org/ns#ShareAlike" />
</cc:License>
</rdf:RDF>
</metadata>
<metadata id="uid">
29cc4ddf9cc89fbeec80028a8b1bc3a0850b437fa1b375189dee62bdbfc5257b
</metadata>
<path stroke="none" fill="black" fill-rule="evenodd" d="M441.50,706.37C438.14,706.65 429.33,706.03 421.50,704.96C413.80,703.92 396.48,701.21 383.00,698.95C369.52,696.69 351.07,693.32 342.00,691.47C332.93,689.61 314.93,686.24 302.00,683.97C289.07,681.71 264.41,676.95 247.18,673.41C229.95,669.87 215.44,667.23 214.93,667.54C214.42,667.86 214.00,668.68 214.00,669.37C214.00,670.06 212.54,672.13 210.75,673.97C208.96,675.81 204.57,678.66 201.00,680.29C197.43,681.92 190.45,684.11 185.50,685.16C180.32,686.26 170.03,687.33 161.23,687.69C146.54,688.28 146.03,688.37 147.61,690.13C149.17,691.84 149.10,692.01 146.57,692.97C145.08,693.54 137.94,694.00 130.68,693.99C123.43,693.99 113.45,693.53 108.50,692.98C103.55,692.42 95.45,691.29 90.50,690.46C85.55,689.63 77.67,688.00 73.00,686.84C68.33,685.68 61.34,683.30 57.49,681.54C53.41,679.68 49.29,676.94 47.65,674.99C45.42,672.34 44.95,671.00 45.43,668.62C45.76,666.96 46.69,664.59 47.50,663.36C48.31,662.13 51.03,659.70 53.55,657.96C56.07,656.23 61.72,653.50 66.10,651.90C70.48,650.31 78.21,648.33 83.28,647.50C88.35,646.68 95.09,646.01 98.25,646.00C104.00,646.00 104.00,646.00 104.00,641.61C104.00,639.19 103.34,630.98 102.54,623.36C101.74,615.74 99.70,594.42 98.02,576.00C96.33,557.58 93.60,529.00 91.95,512.50C90.31,496.00 88.69,481.60 88.37,480.50C88.04,479.40 86.02,476.93 83.87,475.00C79.96,471.50 79.96,471.50 78.88,458.23C78.28,450.92 78.06,443.89 78.38,442.60C78.79,440.99 80.51,439.60 83.86,438.16C86.54,437.00 92.51,435.40 97.12,434.60C101.73,433.80 109.86,432.83 115.20,432.44C124.86,431.74 124.90,431.74 125.39,434.12C125.66,435.43 126.15,438.14 126.47,440.15C126.79,442.16 127.75,444.08 128.61,444.40C129.46,444.73 133.27,445.00 137.06,445.00C143.96,445.00 143.96,445.00 144.23,426.25C144.50,407.50 144.50,407.50 152.31,405.86C156.61,404.95 160.37,403.97 160.66,403.67C160.96,403.38 160.93,402.70 160.61,402.17C160.28,401.64 149.95,396.20 137.66,390.08C125.37,383.96 110.86,376.30 105.41,373.06C99.96,369.81 92.58,364.70 89.00,361.71C85.42,358.71 79.91,352.65 76.74,348.25C73.57,343.85 68.77,336.03 66.08,330.87C63.38,325.72 59.82,317.63 58.17,312.90C56.51,308.17 53.29,297.21 51.01,288.55C48.73,279.89 47.09,272.58 47.36,272.31C47.63,272.03 54.53,272.34 62.68,272.98C70.83,273.62 81.88,275.02 87.23,276.09C92.59,277.16 100.11,279.16 103.95,280.55C107.79,281.94 115.88,285.27 121.91,287.96C127.95,290.65 135.51,294.65 138.70,296.84C141.89,299.02 147.53,303.34 151.23,306.42C154.94,309.50 160.67,315.27 163.97,319.26C167.27,323.24 171.22,328.86 172.74,331.75C174.26,334.63 175.95,336.85 176.50,336.67C177.05,336.49 177.79,332.10 178.14,326.92C178.49,321.74 178.83,310.69 178.89,302.36C178.98,289.40 178.77,287.13 177.42,286.61C176.55,286.27 172.31,286.00 168.01,286.00C163.12,286.00 157.88,285.28 154.06,284.09C150.69,283.05 144.81,280.33 140.99,278.06C137.17,275.80 131.40,271.49 128.16,268.49C124.93,265.50 120.02,259.77 117.26,255.77C114.49,251.77 111.10,245.80 109.72,242.50C108.33,239.20 106.71,234.67 106.11,232.44C105.51,230.20 104.56,223.92 104.00,218.47C103.29,211.61 103.30,204.73 104.04,196.04C104.62,189.14 105.89,177.23 106.85,169.57C107.81,161.90 109.09,155.47 109.68,155.27C110.28,155.07 114.76,156.75 119.63,159.00C124.50,161.26 131.87,165.09 135.99,167.52C140.12,169.95 147.32,174.83 152.00,178.36C160.50,184.79 160.50,184.79 161.10,172.64C161.43,165.96 162.26,158.47 162.94,156.00C163.62,153.53 165.90,148.04 168.00,143.80C170.11,139.57 173.30,133.94 175.10,131.30C176.90,128.66 180.24,124.19 182.52,121.36C184.80,118.54 189.77,112.80 193.56,108.61C197.35,104.43 200.78,101.00 201.18,101.00C201.58,101.00 202.81,103.04 203.91,105.53C205.01,108.02 210.63,116.95 216.41,125.39C222.18,133.82 228.00,143.21 229.35,146.25C230.69,149.29 232.10,153.18 232.48,154.89C232.85,156.60 233.46,158.00 233.83,158.00C234.20,158.00 236.75,156.39 239.50,154.42C242.25,152.45 246.73,149.69 249.45,148.30C252.18,146.90 259.54,144.46 265.80,142.88C272.07,141.30 277.55,140.22 277.98,140.49C278.41,140.75 279.07,145.36 279.45,150.73C279.82,156.11 280.77,166.12 281.56,173.00C282.34,179.88 282.99,190.49 282.99,196.59C283.00,204.37 282.41,209.98 281.03,215.38C279.95,219.61 277.24,226.58 275.00,230.88C272.77,235.17 268.50,241.64 265.51,245.26C262.53,248.88 257.03,254.30 253.29,257.30C249.56,260.30 244.03,264.04 241.00,265.60C236.33,268.01 234.30,268.45 227.50,268.47C223.10,268.49 216.91,268.13 213.74,267.68C209.92,267.13 206.97,266.01 204.99,264.34C203.06,262.72 201.99,262.30 201.98,263.16C201.97,263.90 201.98,285.07 202.00,310.22C202.02,335.36 202.32,356.66 202.66,357.56C203.14,358.81 205.56,356.92 213.21,349.34C218.67,343.93 224.52,337.79 226.20,335.70C229.15,332.02 229.25,331.59 229.08,322.53C228.97,316.57 229.50,310.86 230.54,306.83C231.43,303.35 233.57,297.80 235.28,294.50C237.28,290.65 241.63,285.28 247.45,279.48C254.30,272.66 258.33,269.56 264.00,266.74C268.12,264.69 274.43,262.27 278.00,261.37C283.15,260.08 287.21,259.86 297.50,260.35C305.72,260.74 314.55,261.88 321.50,263.46C327.55,264.84 334.41,266.69 336.75,267.57C339.09,268.45 341.00,269.61 341.00,270.15C341.00,270.79 338.93,270.85 335.25,270.32C332.09,269.87 325.68,269.52 321.00,269.53C316.32,269.55 312.19,269.13 311.82,268.58C311.44,268.04 306.73,267.41 301.35,267.17C295.97,266.94 287.86,267.29 283.33,267.97C278.64,268.66 272.53,270.41 269.13,272.02C265.85,273.57 261.39,276.61 259.22,278.78C256.98,281.02 254.58,284.79 253.64,287.54C252.74,290.19 252.02,294.41 252.04,296.93C252.09,301.50 252.09,301.50 253.79,299.12C254.73,297.81 257.58,294.47 260.12,291.70C264.73,286.65 264.73,286.65 264.62,292.78C264.53,297.41 264.93,299.35 266.25,300.68C267.93,302.35 268.23,302.22 272.75,297.75C275.36,295.18 280.32,290.51 283.76,287.38C287.20,284.24 290.24,281.90 290.50,282.17C290.77,282.44 290.28,284.87 289.41,287.58C288.32,290.97 286.38,293.86 283.16,296.86C280.60,299.26 279.48,300.72 280.68,300.11C281.88,299.50 286.74,295.83 291.48,291.96C296.22,288.09 301.76,284.06 303.80,283.00C305.83,281.95 309.41,280.78 311.75,280.41C314.50,279.98 316.00,280.12 316.00,280.80C316.00,281.39 311.29,284.71 305.54,288.18C299.79,291.66 295.20,294.93 295.36,295.45C295.51,295.98 297.17,296.81 299.05,297.29C302.45,298.17 302.45,298.17 298.48,300.58C296.29,301.91 293.04,303.48 291.25,304.07C289.46,304.67 288.00,305.50 288.00,305.92C288.00,306.34 288.79,307.39 289.75,308.26C290.71,309.12 294.43,310.35 298.00,311.00C301.57,311.65 305.11,312.37 305.86,312.60C306.94,312.93 306.97,313.33 306.02,314.48C305.35,315.28 301.37,317.58 297.15,319.59C292.94,321.60 287.02,324.12 284.00,325.18C280.98,326.25 274.90,327.77 270.50,328.56C266.10,329.35 262.30,330.00 262.05,330.00C261.80,330.00 262.05,330.45 262.59,330.99C263.13,331.53 266.04,332.89 269.04,334.00C274.50,336.03 274.50,336.03 269.00,335.50C265.98,335.21 260.91,334.69 257.75,334.35C254.09,333.94 252.00,334.09 252.00,334.74C252.00,335.30 254.36,337.54 257.25,339.72C260.14,341.89 263.55,344.23 264.82,344.91C266.28,345.68 268.72,345.91 271.32,345.51C273.62,345.15 277.63,344.18 280.24,343.35C282.85,342.52 288.25,339.69 292.24,337.06C296.23,334.43 302.38,329.40 305.90,325.89C309.42,322.37 314.93,316.21 318.14,312.20C321.35,308.18 327.69,299.41 332.24,292.70C336.78,286.00 342.19,278.82 344.25,276.75C346.65,274.35 348.93,273.00 350.58,273.00C352.00,273.00 353.02,273.34 352.83,273.75C352.65,274.16 346.36,283.73 338.86,295.00C331.36,306.27 321.77,319.55 317.55,324.50C313.33,329.45 307.32,335.66 304.19,338.30C301.06,340.95 295.35,344.62 291.50,346.46C287.65,348.30 278.22,351.71 270.53,354.03C262.85,356.35 253.40,359.70 249.53,361.49C245.67,363.27 240.14,366.48 237.27,368.61C234.39,370.75 232.02,372.73 232.02,373.00C232.01,373.27 235.26,373.47 239.25,373.43C243.24,373.39 248.30,372.83 250.50,372.19C252.70,371.55 255.68,370.23 257.11,369.26C258.55,368.29 261.66,366.04 264.01,364.25C266.37,362.46 268.71,361.00 269.21,361.00C269.71,361.00 269.30,362.40 268.31,364.11C267.31,365.82 264.28,369.22 261.57,371.67C258.86,374.12 254.69,377.27 252.30,378.67C249.90,380.08 244.59,382.47 240.50,384.00C236.41,385.53 231.12,387.91 228.74,389.30C226.37,390.69 222.31,394.10 219.72,396.87C217.12,399.65 215.00,402.61 215.00,403.46C215.00,404.31 215.17,405.00 215.37,405.00C215.57,405.00 221.09,405.91 227.62,407.03C234.15,408.15 241.84,409.73 244.71,410.55C247.57,411.36 250.30,412.71 250.77,413.54C251.23,414.38 251.26,418.31 250.83,422.28C250.41,426.25 249.35,438.27 248.50,449.00C247.64,459.73 246.71,469.25 246.43,470.17C246.14,471.09 243.72,473.25 241.05,474.97C238.37,476.69 235.91,478.78 235.59,479.63C235.26,480.47 235.00,481.94 235.00,482.88C235.00,484.40 237.17,484.74 253.75,485.82C264.06,486.50 284.20,488.15 298.50,489.50C312.80,490.85 338.45,493.09 355.50,494.47C372.55,495.86 389.63,497.46 393.46,498.04C397.28,498.61 400.62,499.29 400.87,499.54C401.13,499.79 401.06,500.27 400.72,500.61C400.39,500.95 391.84,501.51 381.73,501.86C363.98,502.48 363.21,502.59 359.30,505.19C357.07,506.66 353.67,509.81 351.75,512.18C349.82,514.56 347.57,517.85 346.74,519.50C345.91,521.15 344.02,526.33 342.54,531.00C340.93,536.10 339.64,542.90 339.33,548.00C339.04,552.67 339.23,557.60 339.74,558.94C340.59,561.14 340.82,560.83 342.09,555.61C342.87,552.44 343.95,549.80 344.50,549.73C345.05,549.66 346.87,553.41 348.54,558.05C350.22,562.70 352.09,567.39 352.71,568.48C353.65,570.13 353.95,569.25 354.56,563.09C355.29,555.73 355.29,555.73 357.12,558.11C358.12,559.43 360.00,563.12 361.30,566.32C362.59,569.52 364.06,572.22 364.57,572.32C365.08,572.42 365.62,570.70 365.77,568.50C365.91,566.30 366.26,563.47 366.55,562.21C366.83,560.95 367.46,560.17 367.95,560.47C368.44,560.77 369.89,564.05 371.17,567.76C373.50,574.50 373.50,574.50 373.80,568.63C374.11,562.75 374.11,562.75 376.30,564.80C377.51,565.93 379.14,567.00 379.91,567.18C380.71,567.36 381.58,566.49 381.91,565.19C382.24,563.92 382.93,562.80 383.45,562.69C383.97,562.59 385.48,565.31 386.79,568.75C388.10,572.19 389.53,575.00 389.97,575.00C390.41,575.00 391.08,572.95 391.46,570.44C391.87,567.71 392.60,566.03 393.28,566.26C393.90,566.47 395.26,569.08 396.29,572.07C397.33,575.06 398.64,578.06 399.21,578.75C399.78,579.44 400.63,580.00 401.11,580.00C401.59,580.00 402.26,578.21 402.61,576.02C403.21,572.31 403.45,572.07 406.25,572.37C408.49,572.62 409.58,573.47 410.53,575.73C411.23,577.39 412.83,579.94 414.08,581.38C415.33,582.82 416.92,584.00 417.60,584.00C418.28,584.00 419.59,581.75 420.50,579.00C421.41,576.25 422.47,574.00 422.85,574.00C423.23,574.00 424.81,577.59 426.37,581.98C427.93,586.37 430.76,592.55 432.67,595.73C434.57,598.90 437.34,602.78 438.82,604.34C440.29,605.90 442.36,607.64 443.40,608.20C445.23,609.20 445.23,609.10 443.31,605.87C442.21,604.02 440.37,600.92 439.23,599.00C438.09,597.08 435.92,591.90 434.42,587.50C432.11,580.72 431.62,577.36 431.23,565.49C430.87,554.64 431.13,550.01 432.39,544.99C433.29,541.42 435.57,535.33 437.47,531.45C439.46,527.38 442.95,522.39 445.73,519.67C448.38,517.07 451.88,514.05 453.52,512.96C455.16,511.86 459.43,510.05 463.00,508.92C467.92,507.37 474.24,506.64 489.00,505.90C499.73,505.36 519.08,504.04 532.00,502.95C544.92,501.87 560.45,500.54 566.50,500.01C572.55,499.48 591.67,498.12 609.00,497.00C626.33,495.88 648.83,494.32 659.00,493.54C669.17,492.76 681.83,491.82 687.12,491.45C692.41,491.08 697.70,491.09 698.87,491.46C700.04,491.83 701.00,492.71 701.00,493.41C701.00,494.11 698.38,496.71 695.17,499.20C691.25,502.25 688.62,505.27 687.13,508.45C685.91,511.05 684.44,517.02 683.86,521.70C683.29,526.39 683.10,531.73 683.45,533.57C683.79,535.41 685.18,537.79 686.54,538.85C687.89,539.92 689.00,541.33 689.00,541.99C689.00,542.65 688.10,544.33 687.00,545.73C685.21,548.00 685.00,549.76 685.02,562.38C685.04,574.07 685.37,577.22 686.94,580.67C687.98,582.97 690.03,585.63 691.48,586.58C692.94,587.54 697.80,588.95 702.29,589.73C706.77,590.50 712.57,592.05 715.18,593.17C717.81,594.31 721.98,597.41 724.53,600.14C727.07,602.85 730.12,607.19 731.32,609.78C733.12,613.68 733.50,616.32 733.50,625.02C733.50,634.84 733.29,635.98 730.30,642.02C728.55,645.58 724.81,651.07 722.01,654.21C718.59,658.04 714.81,660.95 710.50,663.07C705.65,665.46 700.62,666.79 689.80,668.54C681.93,669.82 667.40,672.00 657.50,673.39C647.60,674.79 629.60,677.49 617.50,679.39C605.40,681.29 588.75,683.79 580.50,684.95C572.25,686.11 556.05,688.60 544.50,690.48C532.95,692.36 511.35,695.75 496.50,698.02C481.65,700.28 464.55,702.98 458.50,704.01C452.45,705.03 444.80,706.10 441.50,706.37zM470.13,691.90C473.23,691.95 480.88,691.11 487.13,690.01C493.38,688.92 503.23,687.54 509.00,686.95C514.77,686.36 523.55,685.06 528.50,684.06C533.45,683.05 536.51,682.18 535.31,682.12C534.10,682.05 520.38,683.61 504.81,685.59C489.24,687.56 473.80,689.77 470.50,690.49C464.50,691.80 464.50,691.80 470.13,691.90zM452.72,685.89C455.90,685.48 467.27,683.75 478.00,682.04C488.73,680.33 514.60,676.49 535.50,673.51C556.40,670.54 584.98,666.29 599.00,664.07C613.02,661.85 632.83,658.88 643.00,657.47C653.17,656.05 670.73,653.34 682.00,651.44C693.27,649.54 703.79,647.72 705.36,647.39C706.94,647.06 710.01,645.18 712.18,643.21C714.36,641.25 716.95,638.03 717.94,636.07C718.93,634.11 720.05,630.39 720.42,627.80C720.80,625.18 720.63,621.33 720.02,619.08C719.30,616.41 717.75,614.15 715.41,612.36C711.88,609.67 711.88,609.67 700.19,610.85C693.76,611.49 676.12,613.14 661.00,614.51C645.88,615.88 627.20,617.67 619.50,618.50C611.80,619.32 596.05,620.92 584.50,622.04C572.95,623.17 554.50,625.18 543.50,626.52C532.50,627.86 508.65,630.56 490.50,632.53C472.35,634.50 456.10,636.55 454.40,637.08C452.69,637.62 449.45,639.63 447.21,641.56C444.96,643.48 441.86,647.63 440.32,650.78C437.98,655.56 437.53,657.73 437.59,664.00C437.64,669.99 438.22,672.77 440.49,677.81C442.05,681.28 444.14,684.68 445.13,685.38C446.41,686.27 448.61,686.42 452.72,685.89zM420.38,682.87C420.87,682.94 420.92,680.27 420.49,676.75C420.07,673.31 419.45,666.23 419.12,661.02C418.50,651.54 418.50,651.54 413.00,650.32C409.98,649.66 394.90,647.07 379.50,644.57C364.10,642.07 330.12,637.32 304.00,634.01C277.88,630.70 249.66,627.02 241.29,625.84C228.15,623.98 225.86,623.87 224.38,625.09C223.44,625.87 221.89,628.30 220.94,630.50C219.98,632.70 218.92,636.30 218.59,638.50C218.25,640.70 218.37,643.11 218.86,643.85C219.34,644.59 223.51,646.07 228.12,647.15C232.73,648.22 253.38,652.43 274.00,656.50C294.62,660.57 319.82,665.48 330.00,667.43C340.18,669.37 361.10,672.98 376.50,675.45C391.90,677.93 407.88,680.58 412.00,681.34C416.12,682.11 419.90,682.80 420.38,682.87zM163.12,678.87C167.86,678.94 175.60,678.33 180.32,677.50C185.05,676.68 191.42,675.07 194.49,673.92C197.55,672.77 200.73,670.81 201.55,669.57C202.41,668.25 203.63,661.75 204.48,653.90C205.28,646.53 207.30,628.12 208.98,613.00C210.66,597.88 212.94,577.62 214.05,568.00C215.16,558.38 217.63,536.83 219.53,520.11C221.44,503.40 223.00,487.92 223.00,485.72C223.00,481.72 223.00,481.72 216.75,482.37C213.31,482.73 197.00,483.47 180.50,484.01C164.00,484.55 148.59,485.25 146.25,485.56C143.91,485.87 142.00,486.51 142.00,486.99C142.00,487.47 142.71,488.57 143.57,489.43C144.85,490.71 144.89,491.10 143.79,491.53C143.05,491.81 139.30,492.63 135.47,493.35C128.50,494.66 128.50,494.66 133.82,497.38C136.74,498.88 138.96,500.64 138.74,501.30C138.52,501.96 137.25,502.64 135.92,502.81C134.59,502.98 131.14,504.07 128.25,505.24C125.36,506.41 123.00,507.72 123.00,508.14C123.00,508.57 124.69,509.38 126.75,509.94C128.81,510.51 133.88,511.90 138.00,513.05C142.12,514.19 146.29,515.36 147.25,515.63C148.21,515.91 149.00,516.51 149.00,516.97C149.00,517.43 147.58,518.30 145.85,518.90C144.12,519.51 141.50,520.00 140.03,520.00C138.56,520.00 135.03,520.69 132.18,521.54C129.33,522.39 127.00,523.47 127.00,523.96C127.00,524.44 130.07,525.54 133.81,526.39C137.56,527.24 142.13,528.57 143.98,529.35C146.79,530.53 147.02,530.85 145.42,531.32C144.36,531.63 140.64,532.43 137.14,533.09C132.06,534.06 131.14,534.50 132.57,535.30C133.55,535.84 137.53,537.09 141.42,538.06C145.32,539.03 150.41,540.13 152.74,540.50C155.08,540.87 157.29,541.65 157.65,542.24C158.01,542.82 157.53,543.87 156.58,544.57C155.62,545.26 152.52,546.12 149.67,546.47C146.83,546.82 143.26,547.34 141.75,547.63C140.24,547.92 139.00,548.52 139.00,548.96C139.00,549.40 140.24,550.23 141.75,550.82C143.26,551.40 146.53,552.16 149.00,552.51C151.47,552.86 154.29,553.37 155.25,553.64C156.21,553.91 157.00,554.73 157.00,555.46C157.00,556.18 152.51,558.69 147.03,561.04C141.55,563.38 137.27,565.63 137.53,566.05C137.78,566.46 140.36,567.35 143.25,568.03C146.14,568.71 149.30,569.68 150.28,570.18C151.26,570.69 151.80,571.51 151.50,572.00C151.19,572.50 148.24,573.21 144.95,573.59C141.65,573.96 138.73,574.63 138.45,575.09C138.17,575.54 139.87,576.39 142.22,576.99C144.57,577.58 148.41,578.77 150.75,579.62C153.09,580.47 155.00,581.55 155.00,582.01C155.00,582.48 152.64,583.34 149.75,583.94C146.86,584.53 142.93,585.13 141.00,585.26C139.07,585.39 137.50,585.95 137.50,586.50C137.50,587.05 140.76,588.62 144.75,589.99C148.74,591.35 152.00,592.83 152.00,593.26C152.00,593.69 150.85,594.49 149.43,595.02C148.02,595.56 145.89,596.01 144.68,596.02C143.48,596.02 141.82,596.46 141.00,596.98C139.70,597.80 139.77,598.21 141.50,599.94C142.60,601.04 146.92,602.80 151.11,603.84C155.29,604.89 159.47,606.16 160.39,606.68C161.96,607.56 161.95,607.73 160.29,609.20C159.30,610.07 156.12,611.28 153.20,611.89C150.29,612.50 145.97,613.00 143.62,613.00C141.26,613.00 139.04,613.30 138.67,613.66C138.31,614.02 138.80,614.87 139.76,615.54C140.72,616.22 144.75,617.73 148.71,618.91C152.68,620.10 156.22,621.55 156.59,622.14C156.96,622.74 156.67,623.59 155.94,624.03C155.22,624.48 150.89,625.38 146.32,626.03C141.75,626.67 138.23,627.57 138.51,628.01C138.78,628.45 142.78,629.81 147.39,631.03C152.00,632.25 156.39,633.62 157.13,634.08C158.13,634.70 158.19,635.21 157.36,636.04C156.75,636.65 154.50,637.56 152.37,638.05C150.24,638.55 147.04,638.96 145.25,638.98C143.46,638.99 142.00,639.41 142.00,639.92C142.00,640.43 144.36,641.61 147.25,642.55C150.14,643.50 153.32,644.69 154.31,645.20C155.76,645.95 155.89,646.43 154.94,647.57C154.29,648.36 151.90,649.04 149.63,649.10C147.36,649.15 144.41,649.50 143.07,649.88C141.74,650.25 140.49,651.03 140.30,651.61C140.10,652.19 141.84,653.24 144.16,653.93C146.48,654.63 149.47,655.61 150.80,656.11C152.71,656.84 152.98,657.32 152.07,658.41C151.44,659.17 149.37,660.08 147.46,660.44C145.40,660.83 144.00,661.68 144.00,662.55C144.00,663.35 144.46,664.00 145.03,664.00C145.60,664.00 147.71,664.69 149.72,665.53C153.22,666.99 153.29,667.11 151.37,668.45C150.28,669.22 145.04,670.33 139.73,670.92C134.42,671.52 129.61,672.00 129.04,672.00C128.47,672.00 128.00,672.44 128.00,672.97C128.00,673.51 130.36,674.62 133.25,675.45C136.14,676.28 142.10,677.36 146.50,677.85C150.90,678.34 158.38,678.80 163.12,678.87zM434.84,639.79C437.40,637.41 441.82,633.78 444.65,631.72C447.48,629.66 451.77,627.11 454.17,626.04C457.10,624.75 463.82,623.59 474.52,622.53C483.31,621.66 497.25,620.06 505.50,618.97C513.75,617.89 531.08,615.84 544.00,614.44C556.92,613.03 574.25,611.22 582.50,610.42C590.75,609.62 605.38,608.06 615.00,606.95C624.62,605.84 637.00,604.28 642.50,603.50C648.00,602.71 661.50,600.92 672.50,599.53C683.50,598.13 694.86,596.51 697.75,595.92C700.64,595.34 703.00,594.48 703.00,594.02C703.00,593.56 698.67,592.14 693.37,590.87C685.80,589.04 683.41,588.04 682.18,586.15C680.95,584.27 680.52,579.94 680.20,566.13C679.97,556.43 679.50,548.19 679.15,547.82C678.79,547.44 667.48,548.20 654.00,549.50C640.52,550.80 616.90,553.23 601.50,554.91C586.10,556.58 558.42,559.53 540.00,561.47C521.58,563.41 495.26,566.11 481.51,567.46C467.77,568.82 456.15,569.55 455.68,569.08C455.22,568.62 454.99,566.96 455.17,565.38C455.46,562.91 456.04,562.43 459.50,561.82C461.70,561.43 467.13,561.09 471.56,561.06C476.00,561.03 489.13,560.11 500.74,559.02C512.36,557.94 535.73,555.26 552.68,553.08C569.63,550.90 589.80,548.43 597.50,547.59C605.20,546.75 625.45,544.69 642.50,543.02C659.55,541.34 674.51,539.74 675.75,539.47C677.83,539.00 678.00,538.41 678.02,531.73C678.03,527.75 678.67,521.51 679.44,517.86C680.22,514.20 681.79,509.36 682.95,507.11C685.04,503.00 685.04,503.00 682.77,503.01C681.52,503.01 668.80,503.67 654.50,504.48C640.20,505.28 622.20,506.39 614.50,506.94C606.80,507.50 585.88,508.86 568.00,509.98C550.12,511.10 523.80,512.93 509.50,514.04C495.20,515.15 480.03,516.48 475.78,517.00C471.17,517.56 466.10,518.93 463.20,520.40C460.53,521.75 455.86,525.54 452.82,528.83C449.11,532.83 446.38,537.05 444.52,541.65C442.18,547.42 441.66,550.40 441.24,560.53C440.83,570.60 441.09,573.92 442.86,580.92C444.02,585.52 446.13,591.26 447.55,593.68C448.97,596.10 451.47,599.60 453.11,601.47C454.74,603.33 457.99,605.98 460.32,607.34C462.65,608.71 466.30,610.15 468.44,610.55C472.25,611.27 472.27,611.30 469.91,612.53C468.58,613.21 464.80,614.32 461.50,614.99C458.20,615.65 451.80,617.91 447.29,620.02C440.63,623.11 438.45,624.71 435.79,628.46C433.98,631.01 431.75,635.21 430.84,637.79C429.93,640.37 429.41,642.85 429.68,643.29C429.96,643.74 432.28,642.16 434.84,639.79zM432.89,624.88C434.76,624.48 436.98,623.45 437.83,622.60C438.68,621.75 439.13,620.79 438.82,620.48C438.51,620.17 432.46,619.02 425.38,617.92C418.29,616.83 397.20,613.95 378.50,611.53C359.80,609.11 336.62,606.22 327.00,605.12C317.38,604.01 306.35,602.88 302.50,602.60C298.65,602.33 294.60,602.47 293.50,602.93C291.87,603.60 292.57,604.07 297.37,605.48C300.59,606.43 310.49,608.52 319.37,610.12C328.24,611.72 350.57,615.04 369.00,617.50C387.43,619.95 408.57,622.79 416.00,623.79C423.95,624.87 430.89,625.31 432.89,624.88zM286.19,579.81C288.77,579.91 291.15,579.57 291.47,579.05C291.80,578.52 290.36,577.65 288.28,577.11C286.20,576.56 281.80,575.66 278.50,575.10C275.20,574.55 266.43,573.42 259.00,572.61C251.57,571.79 243.25,570.93 240.50,570.70C237.75,570.47 234.41,570.57 233.07,570.92C231.74,571.27 230.48,572.05 230.28,572.65C230.08,573.25 230.95,574.02 232.21,574.35C233.47,574.69 242.38,575.87 252.00,576.97C261.62,578.08 272.20,579.12 275.50,579.30C278.80,579.48 283.61,579.71 286.19,579.81zM108.83,533.50C109.01,530.75 108.66,523.77 108.05,518.00C107.44,512.23 106.33,505.02 105.58,502.00C104.22,496.50 104.22,496.50 104.13,502.00C104.08,505.02 104.69,513.94 105.49,521.81C106.30,529.67 107.30,536.65 107.73,537.31C108.16,537.98 108.64,536.33 108.83,533.50zM497.14,495.86C489.64,495.78 471.12,495.16 456.00,494.47C440.88,493.78 426.14,492.89 423.25,492.48C420.36,492.08 418.00,491.40 418.00,490.98C418.00,490.57 420.14,489.93 422.75,489.56C425.36,489.19 428.96,488.43 430.75,487.87C432.54,487.31 434.00,486.45 434.00,485.96C434.00,485.47 432.31,484.67 430.25,484.17C428.19,483.66 422.45,482.25 417.50,481.02C412.55,479.79 405.12,478.16 401.00,477.41C396.88,476.65 385.62,474.68 376.00,473.03C366.38,471.38 355.12,469.37 351.00,468.57C346.88,467.77 338.32,466.63 332.00,466.03C325.68,465.44 309.13,464.31 295.24,463.52C281.35,462.74 269.27,461.69 268.38,461.20C266.95,460.39 266.98,460.21 268.64,459.45C269.66,458.98 280.18,458.43 292.00,458.23C306.76,457.97 328.08,458.65 360.00,460.40C385.57,461.81 409.26,463.22 412.64,463.55C418.78,464.14 418.78,464.14 419.50,456.82C419.89,452.79 421.12,447.36 422.23,444.74C423.34,442.13 425.84,438.59 427.78,436.89C431.31,433.79 431.31,433.79 446.91,434.49C455.48,434.88 503.45,435.34 553.50,435.52C603.55,435.70 654.85,436.30 667.50,436.85C680.15,437.40 691.29,438.16 692.25,438.54C693.21,438.91 694.00,439.60 694.00,440.07C694.00,440.54 692.72,442.41 691.15,444.22C689.58,446.02 687.76,448.51 687.11,449.75C686.46,450.98 685.47,454.49 684.91,457.55C684.18,461.47 684.21,464.68 685.00,468.48C685.61,471.43 687.44,475.68 689.06,477.92C690.68,480.15 692.00,482.41 692.00,482.92C692.00,483.44 691.21,484.10 690.25,484.39C689.29,484.68 679.27,485.83 668.00,486.95C656.73,488.08 637.15,489.66 624.50,490.48C611.85,491.29 588.90,492.43 573.50,493.01C558.10,493.58 537.69,494.49 528.14,495.03C518.59,495.56 504.64,495.94 497.14,495.86zM518.16,481.52C524.40,481.25 563.91,480.79 605.97,480.49C648.03,480.20 682.80,479.60 683.24,479.16C683.68,478.72 683.36,476.42 682.52,474.05C681.68,471.69 681.00,466.48 681.00,462.48C681.00,456.35 681.47,454.32 683.97,449.56C686.52,444.70 686.72,443.83 685.35,443.31C684.48,442.97 675.61,443.03 665.63,443.44C655.66,443.85 615.66,444.36 576.75,444.56C529.15,444.81 505.34,445.28 503.99,446.00C502.90,446.59 500.80,449.42 499.34,452.29C497.50,455.91 496.72,458.94 496.79,462.23C496.84,464.83 497.74,468.88 498.79,471.23C499.84,473.58 502.07,476.97 503.76,478.76C506.82,482.02 506.82,482.02 518.16,481.52zM171.00,476.46C190.58,476.22 202.58,475.62 209.35,474.54C214.77,473.68 222.97,472.02 227.57,470.87C232.17,469.72 236.59,468.26 237.41,467.64C238.52,466.78 239.42,460.58 241.05,442.69C242.24,429.60 242.97,418.63 242.67,418.33C242.36,418.03 237.93,418.48 232.81,419.34C227.69,420.19 219.76,421.20 215.19,421.58C210.54,421.96 206.29,422.85 205.56,423.58C204.81,424.33 203.93,428.69 203.52,433.70C203.12,438.54 202.40,443.24 201.92,444.14C201.44,445.05 199.68,446.26 198.02,446.84C196.36,447.42 195.00,448.31 195.00,448.82C195.00,449.33 198.21,450.06 202.13,450.44C206.05,450.83 212.52,450.84 216.50,450.47C221.25,450.02 223.98,450.15 224.41,450.85C224.77,451.43 224.00,452.61 222.71,453.46C221.41,454.31 215.66,455.79 209.93,456.75C200.82,458.28 193.05,458.48 148.75,458.31C120.84,458.20 98.00,458.30 98.00,458.52C98.00,458.75 98.88,459.40 99.96,459.98C101.04,460.56 106.33,461.93 111.71,463.04C117.10,464.14 122.29,465.29 123.25,465.59C124.21,465.89 125.00,466.52 125.00,466.99C125.00,467.46 121.96,468.13 118.25,468.48C114.54,468.83 110.15,469.38 108.50,469.70C105.74,470.22 105.67,470.33 107.63,471.06C108.81,471.49 115.33,472.77 122.13,473.89C128.94,475.02 136.30,476.13 138.50,476.37C140.70,476.61 155.32,476.65 171.00,476.46zM479.38,471.71C479.98,471.51 480.84,469.47 481.29,467.17C481.75,464.88 482.56,463.00 483.11,463.00C483.65,463.00 485.19,464.24 486.53,465.75C488.58,468.06 489.12,468.26 489.94,467.01C490.48,466.19 491.44,463.34 492.08,460.68C492.73,457.94 492.86,455.46 492.37,454.97C491.89,454.49 481.60,453.41 469.50,452.58C457.40,451.74 443.00,450.93 437.50,450.78C427.50,450.50 427.50,450.50 427.54,455.76C427.57,459.42 428.12,461.54 429.35,462.76C431.04,464.41 431.19,464.41 432.42,462.75C433.14,461.79 434.38,461.00 435.19,461.00C435.99,461.00 437.71,462.12 439.00,463.50C440.29,464.88 442.18,466.00 443.20,466.00C444.29,466.00 445.47,464.89 446.08,463.29C447.11,460.57 447.11,460.57 449.63,463.79C451.01,465.55 452.55,467.00 453.04,467.00C453.53,467.00 454.54,465.84 455.29,464.42C456.64,461.84 456.64,461.84 459.52,465.61C462.40,469.39 462.40,469.39 463.51,466.68C464.62,463.96 464.62,463.96 466.98,466.48C468.28,467.87 469.72,469.00 470.17,469.00C470.63,469.00 471.00,467.90 471.00,466.56C471.00,465.22 471.43,463.85 471.96,463.53C472.48,463.20 473.67,464.41 474.58,466.22C475.50,468.02 476.71,470.08 477.28,470.78C477.84,471.49 478.79,471.90 479.38,471.71zM184.85,439.79C193.40,439.50 193.40,439.50 194.56,433.11C195.41,428.40 196.34,426.25 198.10,424.89C199.42,423.87 200.95,423.03 201.50,423.01C202.05,422.99 201.82,422.53 201.00,422.00C200.18,421.47 192.97,421.06 185.00,421.09C177.03,421.12 168.57,421.45 166.21,421.82C163.85,422.20 161.83,422.95 161.71,423.50C161.60,424.05 163.97,425.07 167.00,425.77C170.03,426.48 173.51,427.27 174.75,427.54C175.99,427.82 177.00,428.73 177.00,429.57C177.00,430.41 176.30,432.46 175.44,434.12C174.20,436.52 174.13,437.45 175.09,438.61C176.02,439.73 178.30,440.01 184.85,439.79zM521.29,427.86C519.75,427.79 517.38,427.52 516.00,427.27C514.62,427.02 512.94,426.35 512.25,425.78C511.56,425.22 511.00,423.91 511.00,422.87C511.00,421.83 506.82,416.60 501.72,411.24C496.61,405.88 491.44,400.08 490.22,398.35C489.00,396.61 488.00,394.97 488.00,394.71C488.00,394.44 490.72,394.91 494.03,395.74C497.35,396.58 500.28,397.05 500.55,396.79C500.81,396.52 500.35,394.68 499.51,392.69C498.68,390.69 498.00,386.57 498.00,383.53C498.00,380.49 498.34,378.01 498.75,378.03C499.16,378.04 502.11,381.86 505.31,386.53C508.50,391.19 511.49,395.00 511.94,395.00C512.40,395.00 513.04,393.99 513.37,392.75C513.70,391.51 513.98,388.93 513.99,387.00C514.00,385.07 514.89,378.77 515.98,373.00C517.06,367.23 519.08,354.50 520.47,344.72C521.86,334.94 523.00,326.28 523.00,325.47C523.00,324.47 521.93,324.00 519.63,324.00C517.78,324.00 511.72,325.35 506.16,327.00C500.61,328.65 495.18,330.00 494.09,330.00C493.01,330.00 491.88,329.62 491.59,329.15C491.30,328.68 491.61,327.56 492.28,326.67C492.95,325.78 500.03,322.40 508.00,319.15C518.64,314.83 524.38,313.06 529.54,312.55C533.42,312.16 543.76,312.34 552.54,312.96C561.32,313.58 570.98,314.50 574.00,315.02C577.02,315.54 583.89,317.17 589.25,318.65C594.61,320.13 598.85,321.49 598.66,321.67C598.48,321.85 593.65,321.33 587.92,320.52C581.53,319.61 569.76,319.03 557.50,319.03C546.50,319.03 535.77,319.31 533.66,319.66C531.09,320.08 529.53,320.98 528.94,322.40C528.45,323.55 527.35,330.80 526.48,338.50C525.62,346.20 524.47,363.75 523.93,377.50C523.40,391.25 522.69,403.96 522.37,405.75C522.02,407.66 522.19,409.00 522.78,409.00C523.34,409.00 525.24,406.74 527.02,403.97C528.79,401.21 532.60,396.93 535.48,394.47C538.36,392.01 541.02,390.00 541.40,390.00C541.77,390.00 540.60,392.67 538.80,395.92C536.99,399.18 535.82,402.15 536.19,402.52C536.56,402.89 539.37,402.26 542.43,401.11C546.57,399.56 548.00,399.36 548.00,400.32C548.00,401.03 546.70,403.66 545.11,406.16C543.53,408.66 540.07,412.46 537.43,414.60C534.79,416.75 531.60,419.62 530.33,421.00C529.05,422.38 527.13,424.51 526.04,425.75C524.80,427.17 523.05,427.95 521.29,427.86zM590.63,427.93C588.91,427.89 586.76,427.55 585.85,427.18C584.37,426.57 584.60,425.17 587.99,414.00C590.07,407.12 596.59,385.75 602.46,366.50C609.02,345.03 612.99,330.41 612.74,328.68C612.36,326.09 612.54,325.92 614.91,326.49C616.34,326.84 619.05,328.65 620.95,330.52C624.39,333.92 624.39,333.92 616.05,360.21C611.46,374.67 605.04,395.26 601.79,405.97C598.54,416.68 595.40,426.02 594.81,426.72C594.23,427.43 592.35,427.97 590.63,427.93zM472.39,426.44C471.19,426.78 469.85,426.50 469.27,425.77C468.72,425.07 467.44,422.73 466.43,420.56C465.42,418.39 461.42,413.44 457.55,409.56C453.67,405.68 447.67,400.95 444.22,399.06C440.77,397.17 434.99,393.12 431.39,390.05C427.79,386.98 422.62,381.78 419.90,378.48C417.19,375.19 413.19,368.90 411.03,364.50C408.86,360.10 406.11,352.91 404.92,348.52C403.05,341.64 402.82,338.80 403.27,328.02C403.68,318.13 404.33,313.98 406.33,308.28C407.72,304.30 410.47,297.99 412.44,294.25C414.41,290.50 419.56,282.73 423.90,276.97C428.23,271.21 437.00,261.40 443.39,255.17C449.78,248.94 455.57,244.02 456.26,244.25C456.99,244.49 457.73,247.29 458.07,251.08C458.39,254.61 459.70,260.65 460.98,264.50C462.27,268.35 465.73,276.64 468.69,282.93C471.64,289.22 474.89,297.32 475.90,300.93C476.92,304.54 478.28,310.20 478.92,313.50C479.56,316.80 480.58,326.60 481.19,335.28C482.05,347.37 482.02,352.32 481.10,356.44C480.44,359.40 478.01,365.57 475.71,370.16C473.41,374.75 470.96,379.74 470.26,381.25C469.02,383.94 469.27,384.32 480.50,396.60C486.82,403.53 492.00,409.80 492.00,410.55C492.00,411.29 490.38,413.48 488.40,415.40C486.43,417.32 482.49,420.45 479.65,422.36C476.82,424.27 473.55,426.10 472.39,426.44zM186.82,407.81C189.50,407.50 189.50,407.50 189.76,344.75C189.92,304.60 189.66,282.00 189.04,282.00C188.51,282.00 187.54,283.00 186.88,284.22C186.23,285.44 185.33,292.53 184.89,299.97C184.45,307.41 183.62,333.88 183.03,358.79C182.27,391.22 182.28,404.65 183.05,406.10C183.81,407.51 184.94,408.03 186.82,407.81zM173.10,397.45C173.52,396.38 173.87,389.88 173.89,383.00C173.93,370.50 173.93,370.50 164.71,360.37C159.65,354.80 150.21,345.65 143.73,340.04C137.26,334.43 127.81,326.97 122.73,323.46C117.66,319.95 104.95,312.04 94.50,305.87C84.05,299.70 73.84,293.73 71.82,292.59C69.80,291.46 67.80,290.87 67.38,291.29C66.96,291.70 67.61,294.07 68.81,296.55C70.02,299.03 71.00,302.35 71.00,303.93C71.00,306.28 71.82,307.29 75.45,309.42C77.90,310.86 80.60,313.02 81.45,314.24C82.30,315.45 83.00,316.79 83.00,317.22C83.00,317.65 81.09,318.01 78.75,318.02C76.41,318.02 73.84,318.45 73.04,318.95C71.79,319.74 71.86,320.19 73.49,321.99C74.54,323.15 81.28,327.05 88.45,330.65C95.63,334.24 101.68,337.36 101.89,337.57C102.11,337.78 101.72,338.64 101.02,339.47C100.33,340.31 98.03,341.51 95.91,342.14C93.80,342.78 92.30,343.68 92.59,344.15C92.88,344.62 95.02,345.00 97.35,345.00C99.68,345.00 104.26,344.29 107.54,343.42C110.82,342.55 115.30,342.08 117.50,342.36C119.70,342.64 124.65,343.40 128.50,344.05C132.35,344.70 137.29,346.13 139.47,347.24C141.65,348.36 144.69,350.19 146.22,351.32C147.75,352.45 149.00,353.74 149.00,354.19C149.00,354.63 144.98,355.00 140.07,355.00C135.15,355.00 129.98,355.44 128.57,355.98C127.15,356.51 126.00,357.41 126.00,357.98C126.00,358.54 127.43,359.00 129.19,359.00C130.94,359.00 135.55,359.86 139.44,360.92C143.32,361.97 149.09,363.13 152.25,363.49C155.41,363.85 158.00,364.62 158.00,365.21C158.00,365.79 156.88,367.31 155.50,368.59C154.12,369.86 153.00,371.30 153.00,371.78C153.00,372.26 155.08,375.32 157.62,378.58C160.16,381.83 164.51,387.85 167.29,391.95C171.57,398.27 172.45,399.11 173.10,397.45zM202.81,398.00C203.41,398.00 206.16,393.28 208.94,387.52C212.73,379.67 215.61,375.34 220.39,370.27C223.90,366.55 229.56,361.85 232.96,359.84C236.36,357.83 242.15,355.43 245.82,354.50C249.50,353.57 254.41,352.15 256.75,351.33C259.09,350.51 261.00,349.45 261.00,348.99C261.00,348.52 257.71,346.09 253.69,343.58C249.67,341.08 244.95,338.53 243.21,337.92C240.72,337.05 239.03,337.16 235.17,338.44C232.31,339.39 227.44,342.46 223.39,345.88C219.59,349.07 213.56,355.40 209.99,359.94C204.63,366.75 203.46,368.92 203.28,372.35C203.15,374.63 202.76,381.34 202.39,387.25C201.94,394.66 202.07,398.00 202.81,398.00zM461.35,378.00C462.11,378.00 464.07,374.77 465.75,370.75C467.41,366.76 469.33,361.01 470.00,357.96C470.67,354.91 471.06,351.55 470.86,350.49C470.57,349.00 469.50,349.92 465.99,354.65C463.52,358.00 460.98,361.58 460.35,362.62C459.28,364.38 459.14,364.32 458.13,361.75C457.53,360.23 456.78,355.51 456.46,351.25C455.97,344.87 456.19,342.92 457.68,340.24C458.68,338.45 461.64,333.87 464.26,330.07C466.88,326.27 469.29,321.78 469.63,320.08C470.02,318.14 469.84,317.00 469.15,317.00C468.55,317.00 465.08,320.60 461.44,325.00C457.80,329.40 454.41,333.00 453.91,333.00C453.41,333.00 453.00,328.69 453.00,323.41C453.00,313.83 453.00,313.83 458.41,308.28C461.39,305.23 464.61,301.28 465.57,299.50C466.53,297.72 467.03,295.53 466.69,294.63C466.34,293.73 465.65,293.00 465.14,293.00C464.63,293.00 461.98,295.01 459.24,297.47C456.51,299.93 454.01,301.68 453.69,301.35C453.36,301.03 453.34,299.35 453.64,297.63C453.94,295.91 454.88,292.27 455.74,289.55C456.59,286.83 457.26,283.35 457.21,281.82C457.17,280.29 455.96,275.54 454.51,271.27C453.07,267.00 451.66,262.82 451.38,262.00C450.95,260.74 450.71,260.78 449.88,262.26C449.34,263.22 448.50,268.85 448.02,274.76C447.54,280.67 446.60,290.45 445.94,296.50C445.21,303.18 444.97,313.40 445.33,322.50C445.65,330.75 446.59,341.55 447.43,346.50C448.26,351.45 449.85,359.10 450.97,363.50C452.61,369.98 453.66,372.12 456.48,374.75C458.40,376.54 460.59,378.00 461.35,378.00zM435.79,343.95C437.66,343.99 437.90,343.68 437.13,342.25C436.61,341.29 432.89,337.53 428.85,333.90C424.81,330.27 419.49,324.53 417.02,321.15C414.56,317.77 412.20,315.00 411.77,315.00C411.35,315.00 411.00,316.43 411.00,318.18C411.00,319.94 411.95,323.33 413.11,325.73C414.28,328.13 417.31,332.23 419.86,334.84C422.41,337.44 426.52,340.55 429.00,341.74C431.48,342.93 434.53,343.92 435.79,343.95zM165.31,340.00C165.82,340.00 165.92,338.36 165.53,336.25C165.14,334.19 163.73,330.46 162.38,327.97C161.03,325.48 157.42,320.63 154.37,317.20C151.31,313.77 146.04,309.00 142.65,306.59C139.27,304.18 132.00,299.61 126.50,296.43C121.00,293.24 114.45,289.64 111.94,288.41C109.44,287.19 103.59,285.04 98.94,283.64C94.30,282.24 86.45,280.42 81.50,279.60C76.55,278.77 69.12,277.82 65.00,277.49C57.50,276.88 57.50,276.88 60.44,279.38C62.06,280.76 70.60,285.48 79.40,289.87C91.28,295.78 95.86,297.61 97.11,296.94C98.45,296.23 99.95,297.37 104.48,302.52C107.61,306.08 110.98,309.00 111.98,309.00C112.97,309.00 114.06,308.29 114.39,307.42C114.73,306.55 115.00,304.30 115.00,302.42C115.00,300.54 115.34,299.03 115.75,299.07C116.16,299.11 119.11,303.16 122.31,308.07C125.51,312.98 128.53,317.00 129.03,317.00C129.53,317.00 130.30,315.62 130.74,313.94C131.17,312.26 131.97,310.83 132.51,310.77C133.06,310.71 135.07,313.61 137.00,317.20C138.93,320.79 141.16,324.52 141.96,325.47C143.33,327.10 143.52,327.07 145.21,324.99C146.19,323.77 147.00,322.10 147.00,321.27C147.00,320.01 147.26,319.97 148.57,321.05C149.43,321.77 150.73,323.52 151.47,324.94C152.20,326.36 153.11,329.58 153.49,332.10C153.87,334.61 154.59,337.31 155.10,338.08C155.84,339.24 156.39,339.03 158.05,337.00C160.09,334.50 160.09,334.50 162.24,337.25C163.42,338.76 164.80,340.00 165.31,340.00zM114.00,328.95C113.17,328.93 111.15,328.33 109.50,327.60C107.85,326.87 105.64,325.31 104.60,324.14C102.71,322.02 102.71,322.00 105.16,322.00C106.52,322.00 109.91,322.68 112.70,323.50C115.48,324.33 118.27,325.62 118.90,326.38C119.80,327.47 119.56,327.88 117.77,328.36C116.52,328.70 114.83,328.96 114.00,328.95zM438.70,309.00C438.87,309.00 439.00,307.48 439.00,305.61C439.00,302.89 437.93,301.09 433.50,296.37C429.75,292.37 428.00,291.07 428.00,292.28C428.00,293.26 428.70,295.74 429.55,297.78C430.40,299.83 432.74,303.19 434.75,305.25C436.76,307.31 438.54,309.00 438.70,309.00zM142.25,268.99C144.31,268.99 146.00,268.63 146.00,268.18C146.00,267.72 142.01,265.25 137.13,262.68C132.25,260.10 127.21,258.00 125.93,258.00C123.68,258.00 123.71,258.10 126.83,261.32C128.60,263.15 131.95,265.62 134.27,266.81C136.60,268.00 140.19,268.98 142.25,268.99zM183.29,262.74C183.88,262.54 185.88,259.70 187.72,256.44C190.29,251.88 190.96,249.71 190.58,247.11C190.21,244.57 188.68,242.46 184.54,238.78C179.00,233.84 179.00,233.84 179.00,227.17C179.01,220.50 179.01,220.50 186.11,228.28C190.02,232.56 194.56,236.76 196.20,237.60C197.84,238.45 199.44,238.89 199.76,238.58C200.07,238.26 199.50,234.37 198.48,229.93C197.10,223.89 195.45,220.05 191.90,214.64C189.29,210.67 184.54,204.88 181.33,201.79C178.12,198.69 173.26,194.32 170.52,192.08C167.78,189.83 164.74,188.00 163.77,188.00C162.68,188.00 162.00,188.75 162.00,189.94C162.00,191.01 161.62,192.12 161.15,192.41C160.69,192.69 159.00,191.55 157.40,189.87C155.81,188.19 151.12,184.43 147.00,181.52C142.88,178.60 135.45,173.99 130.50,171.27C125.55,168.54 120.07,165.47 118.31,164.43C116.56,163.39 114.92,162.75 114.66,163.02C114.40,163.28 113.47,171.16 112.60,180.51C111.72,189.87 111.01,200.45 111.02,204.01C111.04,207.58 111.46,212.27 111.96,214.42C112.46,216.58 113.73,219.51 114.78,220.92C115.83,222.34 118.55,224.82 120.83,226.43C124.52,229.04 125.23,229.22 127.37,228.07C129.00,227.19 131.50,227.00 135.14,227.46C138.09,227.83 141.96,228.59 143.75,229.15C145.54,229.70 147.01,230.46 147.03,230.83C147.04,231.20 148.42,233.07 150.08,235.00C153.11,238.50 153.11,238.50 150.91,234.00C149.70,231.53 147.31,227.68 145.60,225.46C143.90,223.23 140.47,219.01 138.00,216.08C135.53,213.14 130.46,207.74 126.75,204.07C123.04,200.40 120.00,196.66 120.00,195.75C120.00,194.37 121.02,194.58 126.47,197.13C130.02,198.80 133.40,199.87 133.96,199.53C134.60,199.13 134.06,197.07 132.52,194.03C131.16,191.35 129.75,187.22 129.38,184.83C128.70,180.50 128.70,180.50 130.90,182.44C132.10,183.51 134.30,186.61 135.79,189.33C137.28,192.05 140.07,198.11 142.00,202.80C143.93,207.50 146.06,211.52 146.75,211.75C147.44,211.98 148.02,211.34 148.05,210.33C148.07,209.32 148.69,207.15 149.43,205.50C150.77,202.50 150.77,202.50 156.38,214.25C159.46,220.71 162.42,226.00 162.96,226.00C163.49,226.00 165.12,224.31 166.57,222.25C169.21,218.50 169.21,218.50 168.59,225.82C168.13,231.25 168.34,233.84 169.41,235.82C170.20,237.30 171.74,240.53 172.83,243.00C173.92,245.47 175.09,248.45 175.43,249.62C175.77,250.79 177.44,254.30 179.13,257.42C180.82,260.54 182.69,262.94 183.29,262.74zM244.00,238.96C244.82,238.96 248.56,237.88 252.30,236.56C256.05,235.24 260.67,232.96 262.59,231.50C264.51,230.04 267.27,226.96 268.74,224.67C270.20,222.38 272.49,216.90 273.83,212.50C275.71,206.29 276.24,202.38 276.17,195.00C276.13,189.78 275.41,181.22 274.59,176.00C273.77,170.78 272.79,162.11 272.41,156.75C271.98,150.64 271.31,147.01 270.61,147.03C270.00,147.04 266.17,148.16 262.10,149.50C258.04,150.85 251.96,153.75 248.60,155.94C245.24,158.13 240.82,161.62 238.79,163.71C236.76,165.79 234.44,169.07 233.64,171.00C232.84,172.93 231.88,176.60 231.49,179.18C231.11,181.77 231.32,186.97 231.98,190.86C233.05,197.24 232.98,198.24 231.14,202.18C230.03,204.56 227.68,208.97 225.91,212.00C224.15,215.03 223.41,216.82 224.27,216.00C225.14,215.18 228.88,210.00 232.59,204.50C236.30,199.00 242.37,190.00 246.09,184.50C249.80,179.00 253.98,173.15 255.38,171.50C257.78,168.67 257.93,168.63 257.96,170.71C257.98,171.93 257.07,175.31 255.94,178.21C254.80,181.12 252.64,185.07 251.12,187.00C249.61,188.93 248.04,191.06 247.63,191.75C247.22,192.44 247.13,193.39 247.42,193.87C247.72,194.36 249.88,194.41 252.23,193.99C254.58,193.57 259.20,192.91 262.50,192.52C268.50,191.82 268.50,191.82 265.50,195.00C263.85,196.75 260.92,199.00 258.99,199.99C257.06,200.98 252.11,202.79 247.99,204.00C243.35,205.36 239.64,207.13 238.25,208.66C237.01,210.01 236.00,211.71 236.00,212.43C236.00,213.16 236.68,214.32 237.50,215.00C238.32,215.68 239.00,216.79 239.00,217.46C239.00,218.13 237.88,219.19 236.50,219.82C235.11,220.45 234.00,221.80 234.00,222.86C234.00,223.90 234.68,225.32 235.50,226.00C236.32,226.68 237.00,227.60 237.00,228.03C237.00,228.46 234.98,230.10 232.50,231.66C230.03,233.22 228.00,234.90 228.00,235.38C228.00,235.87 229.63,236.00 231.62,235.67C233.61,235.35 238.22,233.29 241.87,231.10C245.52,228.90 249.74,226.65 251.25,226.08C252.76,225.51 254.00,225.20 254.00,225.38C254.00,225.56 251.37,227.55 248.17,229.80C244.96,232.05 241.72,234.63 240.98,235.52C239.84,236.90 239.85,237.29 241.06,238.06C241.85,238.56 243.18,238.97 244.00,238.96zM197.50,200.57C198.05,200.45 198.64,198.47 198.81,196.17C199.08,192.54 198.80,191.87 196.70,191.08C195.38,190.57 192.62,188.21 190.58,185.83C187.67,182.43 187.21,181.43 188.48,181.17C189.37,180.99 191.49,181.32 193.19,181.92C194.90,182.51 196.91,183.00 197.65,183.00C198.48,183.00 199.00,181.87 199.00,180.08C199.00,177.52 198.10,176.62 191.80,172.83C186.05,169.37 183.94,167.39 181.30,163.00C179.49,159.97 178.01,157.20 178.00,156.83C178.00,156.46 182.08,158.60 187.07,161.59C192.05,164.59 196.55,166.78 197.07,166.46C197.58,166.14 198.00,164.60 198.00,163.04C198.00,161.45 196.45,157.90 194.46,154.94C192.52,152.05 190.65,149.24 190.31,148.69C189.93,148.08 190.24,148.00 191.10,148.49C191.87,148.94 193.54,150.23 194.80,151.37C196.60,152.99 197.28,153.16 197.91,152.14C198.35,151.43 198.97,146.55 199.29,141.29C199.60,136.04 200.27,131.33 200.78,130.82C201.34,130.26 202.33,131.97 203.31,135.20C204.20,138.12 205.49,146.91 206.16,154.75C207.01,164.56 207.77,169.00 208.60,169.00C209.27,169.00 211.70,166.75 214.00,164.00C216.30,161.25 218.54,159.00 218.98,159.00C219.41,159.00 220.01,159.94 220.31,161.08C220.61,162.23 220.22,165.26 219.44,167.83C218.66,170.40 218.02,172.93 218.01,173.47C218.00,174.00 220.50,171.97 223.56,168.97C228.30,164.31 229.04,163.09 228.58,160.73C228.29,159.21 226.61,154.52 224.86,150.32C223.11,146.12 220.96,141.96 220.09,141.09C219.22,140.21 216.51,136.57 214.07,133.00C211.64,129.42 208.04,124.38 206.07,121.80C204.11,119.21 201.72,116.06 200.77,114.80C199.03,112.50 199.03,112.50 197.07,114.79C195.99,116.05 194.17,119.61 193.01,122.71C191.85,125.81 190.24,131.50 189.42,135.36C188.61,139.23 187.77,142.56 187.56,142.77C187.35,142.98 185.97,141.10 184.49,138.58C183.02,136.06 181.45,134.00 181.02,134.00C180.59,134.00 179.28,136.36 178.12,139.25C176.96,142.14 175.71,146.07 175.34,148.00C174.97,149.93 173.84,152.63 172.82,154.01C171.48,155.84 170.81,159.08 170.37,166.01C169.99,171.95 170.19,177.07 170.90,179.68C171.70,182.62 173.27,184.85 176.18,187.18C178.45,189.01 183.96,192.82 188.41,195.65C192.86,198.49 196.95,200.70 197.50,200.57z" />

</svg>